<svg width="40" height="36" viewBox="0 0 40 36" fill="none" xmlns="http://www.w3.org/2000/svg">
<g id="Editor / show chart">
<mask id="mask0_2419_1834" style="mask-type:alpha" maskUnits="userSpaceOnUse" x="3" y="9" width="34" height="19">
<g id="Icon Mask">
<path id="Round" d="M6.97664 26.862L15.81 19.1361L21.2266 23.8737C21.91 24.4714 23.01 24.4422 23.6433 23.8154L35.5933 12.0515C36.1766 11.483 36.1433 10.6083 35.5266 10.0544C34.86 9.47128 33.7433 9.48585 33.11 10.1127L22.46 20.5792L16.9766 15.7833C16.6652 15.5103 16.2425 15.3569 15.8016 15.3569C15.3608 15.3569 14.938 15.5103 14.6266 15.7833L4.47664 24.6754C3.82664 25.244 3.82664 26.1623 4.47664 26.7309L4.62664 26.862C5.27664 27.4306 6.3433 27.4306 6.97664 26.862Z" fill="black"/>
</g>
</mask>
<g mask="url(#mask0_2419_1834)">
<rect id="Color Fill" y="0.966309" width="40" height="34.9856" fill="#5A6B6B"/>
</g>
</g>
</svg>
