<svg width="24" height="22" viewBox="0 0 24 22" fill="none" xmlns="http://www.w3.org/2000/svg">
<g id="Action / check circle_outline">
<mask id="mask0_2419_1744" style="mask-type:alpha" maskUnits="userSpaceOnUse" x="2" y="2" width="20" height="18">
<g id="Icon Mask">
<path id="Round" fill-rule="evenodd" clip-rule="evenodd" d="M12 2.42676C6.48 2.42676 2 6.34515 2 11.1732C2 16.0012 6.48 19.9196 12 19.9196C17.52 19.9196 22 16.0012 22 11.1732C22 6.34515 17.52 2.42676 12 2.42676ZM12 18.1703C7.59 18.1703 4 15.0303 4 11.1732C4 7.316 7.59 4.17604 12 4.17604C16.41 4.17604 20 7.316 20 11.1732C20 15.0303 16.41 18.1703 12 18.1703ZM10 13.0711L15.88 7.92825C16.27 7.58714 16.91 7.58714 17.3 7.92825C17.69 8.26936 17.69 8.82038 17.3 9.16149L10.71 14.9254C10.32 15.2665 9.69 15.2665 9.3 14.9254L6.71 12.6601C6.32 12.3189 6.32 11.7679 6.71 11.4268C6.89683 11.263 7.15048 11.171 7.415 11.171C7.67952 11.171 7.93317 11.263 8.12 11.4268L10 13.0711Z" fill="black"/>
</g>
</mask>
<g mask="url(#mask0_2419_1744)">
<rect id="Color Fill" y="0.67749" width="24" height="20.9914" fill="#5A6B6B"/>
</g>
</g>
</svg>
