<svg width="16" height="17" viewBox="0 0 16 17" fill="none" xmlns="http://www.w3.org/2000/svg">
<g id="Content / copy">
<mask id="mask0_2366_1818" style="mask-type:alpha" maskUnits="userSpaceOnUse" x="1" y="1" width="14" height="16">
<g id="Icon Mask">
<path id="Round" fill-rule="evenodd" clip-rule="evenodd" d="M10.3334 1.47241H3.00008C2.26675 1.47241 1.66675 2.06826 1.66675 2.79652V11.4033C1.66675 11.7674 1.96675 12.0653 2.33341 12.0653C2.70008 12.0653 3.00008 11.7674 3.00008 11.4033V3.45858C3.00008 3.09445 3.30008 2.79652 3.66675 2.79652H10.3334C10.7001 2.79652 11.0001 2.4986 11.0001 2.13447C11.0001 1.77034 10.7001 1.47241 10.3334 1.47241ZM13.0001 4.12064H5.66675C4.93341 4.12064 4.33341 4.71649 4.33341 5.44475V14.7135C4.33341 15.4418 4.93341 16.0376 5.66675 16.0376H13.0001C13.7334 16.0376 14.3334 15.4418 14.3334 14.7135V5.44475C14.3334 4.71649 13.7334 4.12064 13.0001 4.12064ZM6.33341 14.7135H12.3334C12.7001 14.7135 13.0001 14.4156 13.0001 14.0515V6.10681C13.0001 5.74267 12.7001 5.44475 12.3334 5.44475H6.33341C5.96675 5.44475 5.66675 5.74267 5.66675 6.10681V14.0515C5.66675 14.4156 5.96675 14.7135 6.33341 14.7135Z" fill="black"/>
</g>
</mask>
<g mask="url(#mask0_2366_1818)">
<rect id="Color Fill" y="0.810303" width="16" height="15.8893" fill="#437E7F"/>
</g>
</g>
</svg>
