<svg width="40" height="36" viewBox="0 0 40 36" fill="none" xmlns="http://www.w3.org/2000/svg">
<g id="Editor / insert invitation">
<mask id="mask0_2419_1817" style="mask-type:alpha" maskUnits="userSpaceOnUse" x="5" y="3" width="30" height="30">
<g id="Icon Mask">
<path id="Round" fill-rule="evenodd" clip-rule="evenodd" d="M26.6667 4.59006V6.04779H13.3333V4.59006C13.3333 3.7883 12.5833 3.13232 11.6667 3.13232C10.75 3.13232 10 3.7883 10 4.59006V6.04779H8.33333C6.48333 6.04779 5.01667 7.35975 5.01667 8.96326L5 29.3715C5 30.975 6.48333 32.287 8.33333 32.287H31.6667C33.5 32.287 35 30.975 35 29.3715V8.96326C35 7.35975 33.5 6.04779 31.6667 6.04779H30V4.59006C30 3.7883 29.25 3.13232 28.3333 3.13232C27.4167 3.13232 26.6667 3.7883 26.6667 4.59006ZM26.6667 19.1674H21.6667C20.75 19.1674 20 19.8234 20 20.6251V24.9983C20 25.8001 20.75 26.4561 21.6667 26.4561H26.6667C27.5833 26.4561 28.3333 25.8001 28.3333 24.9983V20.6251C28.3333 19.8234 27.5833 19.1674 26.6667 19.1674ZM10 29.3715H30C30.9167 29.3715 31.6667 28.7156 31.6667 27.9138V13.3365H8.33333V27.9138C8.33333 28.7156 9.08333 29.3715 10 29.3715Z" fill="black"/>
</g>
</mask>
<g mask="url(#mask0_2419_1817)">
<rect id="Color Fill" y="0.216797" width="40" height="34.9856" fill="#5A6B6B"/>
</g>
</g>
</svg>
