<svg width="40" height="36" viewBox="0 0 40 36" fill="none" xmlns="http://www.w3.org/2000/svg">
<g id="Editor / monetization on">
<mask id="mask0_2419_1800" style="mask-type:alpha" maskUnits="userSpaceOnUse" x="3" y="3" width="34" height="31">
<g id="Icon Mask">
<path id="Round" fill-rule="evenodd" clip-rule="evenodd" d="M3.33331 18.4592C3.33331 10.4125 10.8 3.88184 20 3.88184C29.2 3.88184 36.6666 10.4125 36.6666 18.4592C36.6666 26.5059 29.2 33.0365 20 33.0365C10.8 33.0365 3.33331 26.5059 3.33331 18.4592ZM22.35 28.1823V27.3368C25.25 26.8557 27.5333 25.398 27.5666 22.7303C27.5666 19.0568 23.9666 17.7886 20.6 17.0306C17.2333 16.2726 16.15 15.4708 16.15 14.2463C16.15 12.8469 17.65 11.8556 20.15 11.8556C22.25 11.8556 23.3 12.5699 23.6833 13.6778C23.85 14.2026 24.35 14.5816 24.9666 14.5816H25.4C26.3833 14.5816 27.0833 13.7361 26.75 12.9344C26.1166 11.3892 24.6666 10.1355 22.3666 9.63989V8.73609C22.3666 7.67194 21.3666 6.7973 20.15 6.7973H20.1333C18.9166 6.7973 17.9166 7.67194 17.9166 8.73609V9.61073C15.05 10.1501 12.7333 11.7828 12.7333 14.2901C12.7333 17.2784 15.5666 18.7653 19.7 19.6399C23.4166 20.4125 24.15 21.5496 24.15 22.7595C24.15 23.6487 23.4166 25.0773 20.15 25.0773C17.7166 25.0773 16.45 24.3193 15.9666 23.226C15.7333 22.7158 15.2333 22.3513 14.6166 22.3513H14.2166C13.2166 22.3513 12.5 23.2405 12.8833 24.0423C13.7166 25.8353 15.6833 26.8995 17.9 27.3076V28.1823C17.9 29.2464 18.9 30.1211 20.1166 30.1211H20.1333C21.35 30.1211 22.35 29.2464 22.35 28.1823Z" fill="black"/>
</g>
</mask>
<g mask="url(#mask0_2419_1800)">
<rect id="Color Fill" y="0.966309" width="40" height="34.9856" fill="#5A6B6B"/>
</g>
</g>
</svg>
