<svg width="40" height="36" viewBox="0 0 40 36" fill="none" xmlns="http://www.w3.org/2000/svg">
<g id="Communication / phonelink ring">
<mask id="mask0_2419_1779" style="mask-type:alpha" maskUnits="userSpaceOnUse" x="3" y="1" width="34" height="33">
<g id="Icon Mask">
<path id="Round" fill-rule="evenodd" clip-rule="evenodd" d="M6.69069 1.67432H23.3574C25.1907 1.67432 26.6907 2.98628 26.6907 4.58979V30.829C26.6907 32.4325 25.1907 33.7445 23.3574 33.7445H6.69069C4.85736 33.7445 3.35736 32.4325 3.35736 30.829V4.58979C3.35736 2.98628 4.85736 1.67432 6.69069 1.67432ZM6.69069 29.3713H23.3574V6.04752H6.69069V29.3713ZM34.4074 12.2575C33.974 11.791 33.174 11.7327 32.674 12.17L32.624 12.2137C32.2074 12.5782 32.1907 13.1613 32.5407 13.5694C34.6407 15.9601 34.624 19.2109 32.5074 21.689C32.1574 22.0972 32.1907 22.6657 32.5907 23.0301L32.674 23.103C33.1574 23.5258 33.9407 23.482 34.3907 23.0301C37.3907 19.9251 37.3907 15.4645 34.4074 12.2575ZM28.9574 15.4208L29.0574 15.3333C29.3156 15.1049 29.6834 14.9987 30.0464 15.0478C30.4093 15.0968 30.7233 15.2952 30.8907 15.5811C31.724 16.9222 31.724 18.4528 30.9074 19.7502C30.5407 20.3333 29.624 20.4354 29.0907 19.9689L28.9574 19.8523C28.624 19.5607 28.524 19.1234 28.7074 18.7444C29.0574 18.0301 29.0574 17.2429 28.7074 16.5286C28.524 16.1496 28.624 15.7123 28.9574 15.4208Z" fill="black"/>
</g>
</mask>
<g mask="url(#mask0_2419_1779)">
<rect id="Color Fill" y="0.216797" width="40" height="34.9856" fill="#5A6B6B"/>
</g>
</g>
</svg>
