<svg width="40" height="36" viewBox="0 0 40 36" fill="none" xmlns="http://www.w3.org/2000/svg">
<g id="Content / remove circle_outline">
<mask id="mask0_2419_1848" style="mask-type:alpha" maskUnits="userSpaceOnUse" x="3" y="3" width="34" height="30">
<g id="Icon Mask">
<path id="Round" fill-rule="evenodd" clip-rule="evenodd" d="M20 3.13232C10.8 3.13232 3.33337 9.66297 3.33337 17.7097C3.33337 25.7564 10.8 32.287 20 32.287C29.2 32.287 36.6667 25.7564 36.6667 17.7097C36.6667 9.66297 29.2 3.13232 20 3.13232ZM11.6667 17.7097C11.6667 18.5114 12.4167 19.1674 13.3334 19.1674H26.6667C27.5834 19.1674 28.3334 18.5114 28.3334 17.7097C28.3334 16.9079 27.5834 16.2519 26.6667 16.2519H13.3334C12.4167 16.2519 11.6667 16.9079 11.6667 17.7097ZM6.66671 17.7097C6.66671 24.1383 12.65 29.3715 20 29.3715C27.35 29.3715 33.3334 24.1383 33.3334 17.7097C33.3334 11.2811 27.35 6.04779 20 6.04779C12.65 6.04779 6.66671 11.2811 6.66671 17.7097Z" fill="black"/>
</g>
</mask>
<g mask="url(#mask0_2419_1848)">
<rect id="Color Fill" y="0.216797" width="40" height="34.9856" fill="#5A6B6B"/>
</g>
</g>
</svg>
